<?xml version="1.0" encoding="utf-8" standalone="no"?>
<!DOCTYPE svg PUBLIC "-//W3C//DTD SVG 1.1//EN"
  "http://www.w3.org/Graphics/SVG/1.1/DTD/svg11.dtd">
<svg xmlns:xlink="http://www.w3.org/1999/xlink" width="460.8pt" height="345.6pt" viewBox="0 0 460.8 345.6" xmlns="http://www.w3.org/2000/svg" version="1.1">
 <metadata>
  <rdf:RDF xmlns:dc="http://purl.org/dc/elements/1.1/" xmlns:cc="http://creativecommons.org/ns#" xmlns:rdf="http://www.w3.org/1999/02/22-rdf-syntax-ns#">
   <cc:Work>
    <dc:type rdf:resource="http://purl.org/dc/dcmitype/StillImage"/>
    <dc:date>2023-06-10T09:34:11.685350</dc:date>
    <dc:format>image/svg+xml</dc:format>
    <dc:creator>
     <cc:Agent>
      <dc:title>Matplotlib v3.7.1, https://matplotlib.org/</dc:title>
     </cc:Agent>
    </dc:creator>
   </cc:Work>
  </rdf:RDF>
 </metadata>
 <defs>
  <style type="text/css">*{stroke-linejoin: round; stroke-linecap: butt}</style>
 </defs>
 <g id="figure_1">
  <g id="patch_1">
   <path d="M 0 345.6 
L 460.8 345.6 
L 460.8 0 
L 0 0 
z
" style="fill: #ffffff"/>
  </g>
  <g id="axes_1">
   <g id="patch_2">
    <path d="M 57.6 307.584 
L 414.72 307.584 
L 414.72 41.472 
L 57.6 41.472 
z
" style="fill: #ffffff"/>
   </g>
   <g id="matplotlib.axis_1">
    <g id="xtick_1">
     <g id="line2d_1">
      <defs>
       <path id="mfaa8d27218" d="M 0 0 
L 0 3.5 
" style="stroke: #000000; stroke-width: 0.8"/>
      </defs>
      <g>
       <use xlink:href="#mfaa8d27218" x="73.832727" y="307.584" style="stroke: #000000; stroke-width: 0.8"/>
      </g>
     </g>
     <g id="text_1">
      <!-- 0 -->
      <g transform="translate(70.651477 322.182437) scale(0.1 -0.1)">
       <defs>
        <path id="DejaVuSans-30" d="M 2034 4250 
Q 1547 4250 1301 3770 
Q 1056 3291 1056 2328 
Q 1056 1369 1301 889 
Q 1547 409 2034 409 
Q 2525 409 2770 889 
Q 3016 1369 3016 2328 
Q 3016 3291 2770 3770 
Q 2525 4250 2034 4250 
z
M 2034 4750 
Q 2819 4750 3233 4129 
Q 3647 3509 3647 2328 
Q 3647 1150 3233 529 
Q 2819 -91 2034 -91 
Q 1250 -91 836 529 
Q 422 1150 422 2328 
Q 422 3509 836 4129 
Q 1250 4750 2034 4750 
z
" transform="scale(0.015625)"/>
       </defs>
       <use xlink:href="#DejaVuSans-30"/>
      </g>
     </g>
    </g>
    <g id="xtick_2">
     <g id="line2d_2">
      <g>
       <use xlink:href="#mfaa8d27218" x="127.959861" y="307.584" style="stroke: #000000; stroke-width: 0.8"/>
      </g>
     </g>
     <g id="text_2">
      <!-- 500 -->
      <g transform="translate(118.416111 322.182437) scale(0.1 -0.1)">
       <defs>
        <path id="DejaVuSans-35" d="M 691 4666 
L 3169 4666 
L 3169 4134 
L 1269 4134 
L 1269 2991 
Q 1406 3038 1543 3061 
Q 1681 3084 1819 3084 
Q 2600 3084 3056 2656 
Q 3513 2228 3513 1497 
Q 3513 744 3044 326 
Q 2575 -91 1722 -91 
Q 1428 -91 1123 -41 
Q 819 9 494 109 
L 494 744 
Q 775 591 1075 516 
Q 1375 441 1709 441 
Q 2250 441 2565 725 
Q 2881 1009 2881 1497 
Q 2881 1984 2565 2268 
Q 2250 2553 1709 2553 
Q 1456 2553 1204 2497 
Q 953 2441 691 2322 
L 691 4666 
z
" transform="scale(0.015625)"/>
       </defs>
       <use xlink:href="#DejaVuSans-35"/>
       <use xlink:href="#DejaVuSans-30" x="63.623047"/>
       <use xlink:href="#DejaVuSans-30" x="127.246094"/>
      </g>
     </g>
    </g>
    <g id="xtick_3">
     <g id="line2d_3">
      <g>
       <use xlink:href="#mfaa8d27218" x="182.086994" y="307.584" style="stroke: #000000; stroke-width: 0.8"/>
      </g>
     </g>
     <g id="text_3">
      <!-- 1000 -->
      <g transform="translate(169.361994 322.182437) scale(0.1 -0.1)">
       <defs>
        <path id="DejaVuSans-31" d="M 794 531 
L 1825 531 
L 1825 4091 
L 703 3866 
L 703 4441 
L 1819 4666 
L 2450 4666 
L 2450 531 
L 3481 531 
L 3481 0 
L 794 0 
L 794 531 
z
" transform="scale(0.015625)"/>
       </defs>
       <use xlink:href="#DejaVuSans-31"/>
       <use xlink:href="#DejaVuSans-30" x="63.623047"/>
       <use xlink:href="#DejaVuSans-30" x="127.246094"/>
       <use xlink:href="#DejaVuSans-30" x="190.869141"/>
      </g>
     </g>
    </g>
    <g id="xtick_4">
     <g id="line2d_4">
      <g>
       <use xlink:href="#mfaa8d27218" x="236.214127" y="307.584" style="stroke: #000000; stroke-width: 0.8"/>
      </g>
     </g>
     <g id="text_4">
      <!-- 1500 -->
      <g transform="translate(223.489127 322.182437) scale(0.1 -0.1)">
       <use xlink:href="#DejaVuSans-31"/>
       <use xlink:href="#DejaVuSans-35" x="63.623047"/>
       <use xlink:href="#DejaVuSans-30" x="127.246094"/>
       <use xlink:href="#DejaVuSans-30" x="190.869141"/>
      </g>
     </g>
    </g>
    <g id="xtick_5">
     <g id="line2d_5">
      <g>
       <use xlink:href="#mfaa8d27218" x="290.34126" y="307.584" style="stroke: #000000; stroke-width: 0.8"/>
      </g>
     </g>
     <g id="text_5">
      <!-- 2000 -->
      <g transform="translate(277.61626 322.182437) scale(0.1 -0.1)">
       <defs>
        <path id="DejaVuSans-32" d="M 1228 531 
L 3431 531 
L 3431 0 
L 469 0 
L 469 531 
Q 828 903 1448 1529 
Q 2069 2156 2228 2338 
Q 2531 2678 2651 2914 
Q 2772 3150 2772 3378 
Q 2772 3750 2511 3984 
Q 2250 4219 1831 4219 
Q 1534 4219 1204 4116 
Q 875 4013 500 3803 
L 500 4441 
Q 881 4594 1212 4672 
Q 1544 4750 1819 4750 
Q 2544 4750 2975 4387 
Q 3406 4025 3406 3419 
Q 3406 3131 3298 2873 
Q 3191 2616 2906 2266 
Q 2828 2175 2409 1742 
Q 1991 1309 1228 531 
z
" transform="scale(0.015625)"/>
       </defs>
       <use xlink:href="#DejaVuSans-32"/>
       <use xlink:href="#DejaVuSans-30" x="63.623047"/>
       <use xlink:href="#DejaVuSans-30" x="127.246094"/>
       <use xlink:href="#DejaVuSans-30" x="190.869141"/>
      </g>
     </g>
    </g>
    <g id="xtick_6">
     <g id="line2d_6">
      <g>
       <use xlink:href="#mfaa8d27218" x="344.468394" y="307.584" style="stroke: #000000; stroke-width: 0.8"/>
      </g>
     </g>
     <g id="text_6">
      <!-- 2500 -->
      <g transform="translate(331.743394 322.182437) scale(0.1 -0.1)">
       <use xlink:href="#DejaVuSans-32"/>
       <use xlink:href="#DejaVuSans-35" x="63.623047"/>
       <use xlink:href="#DejaVuSans-30" x="127.246094"/>
       <use xlink:href="#DejaVuSans-30" x="190.869141"/>
      </g>
     </g>
    </g>
    <g id="xtick_7">
     <g id="line2d_7">
      <g>
       <use xlink:href="#mfaa8d27218" x="398.595527" y="307.584" style="stroke: #000000; stroke-width: 0.8"/>
      </g>
     </g>
     <g id="text_7">
      <!-- 3000 -->
      <g transform="translate(385.870527 322.182437) scale(0.1 -0.1)">
       <defs>
        <path id="DejaVuSans-33" d="M 2597 2516 
Q 3050 2419 3304 2112 
Q 3559 1806 3559 1356 
Q 3559 666 3084 287 
Q 2609 -91 1734 -91 
Q 1441 -91 1130 -33 
Q 819 25 488 141 
L 488 750 
Q 750 597 1062 519 
Q 1375 441 1716 441 
Q 2309 441 2620 675 
Q 2931 909 2931 1356 
Q 2931 1769 2642 2001 
Q 2353 2234 1838 2234 
L 1294 2234 
L 1294 2753 
L 1863 2753 
Q 2328 2753 2575 2939 
Q 2822 3125 2822 3475 
Q 2822 3834 2567 4026 
Q 2313 4219 1838 4219 
Q 1578 4219 1281 4162 
Q 984 4106 628 3988 
L 628 4550 
Q 988 4650 1302 4700 
Q 1616 4750 1894 4750 
Q 2613 4750 3031 4423 
Q 3450 4097 3450 3541 
Q 3450 3153 3228 2886 
Q 3006 2619 2597 2516 
z
" transform="scale(0.015625)"/>
       </defs>
       <use xlink:href="#DejaVuSans-33"/>
       <use xlink:href="#DejaVuSans-30" x="63.623047"/>
       <use xlink:href="#DejaVuSans-30" x="127.246094"/>
       <use xlink:href="#DejaVuSans-30" x="190.869141"/>
      </g>
     </g>
    </g>
    <g id="text_8">
     <!-- iterations -->
     <g transform="translate(212.432656 335.860562) scale(0.1 -0.1)">
      <defs>
       <path id="DejaVuSans-69" d="M 603 3500 
L 1178 3500 
L 1178 0 
L 603 0 
L 603 3500 
z
M 603 4863 
L 1178 4863 
L 1178 4134 
L 603 4134 
L 603 4863 
z
" transform="scale(0.015625)"/>
       <path id="DejaVuSans-74" d="M 1172 4494 
L 1172 3500 
L 2356 3500 
L 2356 3053 
L 1172 3053 
L 1172 1153 
Q 1172 725 1289 603 
Q 1406 481 1766 481 
L 2356 481 
L 2356 0 
L 1766 0 
Q 1100 0 847 248 
Q 594 497 594 1153 
L 594 3053 
L 172 3053 
L 172 3500 
L 594 3500 
L 594 4494 
L 1172 4494 
z
" transform="scale(0.015625)"/>
       <path id="DejaVuSans-65" d="M 3597 1894 
L 3597 1613 
L 953 1613 
Q 991 1019 1311 708 
Q 1631 397 2203 397 
Q 2534 397 2845 478 
Q 3156 559 3463 722 
L 3463 178 
Q 3153 47 2828 -22 
Q 2503 -91 2169 -91 
Q 1331 -91 842 396 
Q 353 884 353 1716 
Q 353 2575 817 3079 
Q 1281 3584 2069 3584 
Q 2775 3584 3186 3129 
Q 3597 2675 3597 1894 
z
M 3022 2063 
Q 3016 2534 2758 2815 
Q 2500 3097 2075 3097 
Q 1594 3097 1305 2825 
Q 1016 2553 972 2059 
L 3022 2063 
z
" transform="scale(0.015625)"/>
       <path id="DejaVuSans-72" d="M 2631 2963 
Q 2534 3019 2420 3045 
Q 2306 3072 2169 3072 
Q 1681 3072 1420 2755 
Q 1159 2438 1159 1844 
L 1159 0 
L 581 0 
L 581 3500 
L 1159 3500 
L 1159 2956 
Q 1341 3275 1631 3429 
Q 1922 3584 2338 3584 
Q 2397 3584 2469 3576 
Q 2541 3569 2628 3553 
L 2631 2963 
z
" transform="scale(0.015625)"/>
       <path id="DejaVuSans-61" d="M 2194 1759 
Q 1497 1759 1228 1600 
Q 959 1441 959 1056 
Q 959 750 1161 570 
Q 1363 391 1709 391 
Q 2188 391 2477 730 
Q 2766 1069 2766 1631 
L 2766 1759 
L 2194 1759 
z
M 3341 1997 
L 3341 0 
L 2766 0 
L 2766 531 
Q 2569 213 2275 61 
Q 1981 -91 1556 -91 
Q 1019 -91 701 211 
Q 384 513 384 1019 
Q 384 1609 779 1909 
Q 1175 2209 1959 2209 
L 2766 2209 
L 2766 2266 
Q 2766 2663 2505 2880 
Q 2244 3097 1772 3097 
Q 1472 3097 1187 3025 
Q 903 2953 641 2809 
L 641 3341 
Q 956 3463 1253 3523 
Q 1550 3584 1831 3584 
Q 2591 3584 2966 3190 
Q 3341 2797 3341 1997 
z
" transform="scale(0.015625)"/>
       <path id="DejaVuSans-6f" d="M 1959 3097 
Q 1497 3097 1228 2736 
Q 959 2375 959 1747 
Q 959 1119 1226 758 
Q 1494 397 1959 397 
Q 2419 397 2687 759 
Q 2956 1122 2956 1747 
Q 2956 2369 2687 2733 
Q 2419 3097 1959 3097 
z
M 1959 3584 
Q 2709 3584 3137 3096 
Q 3566 2609 3566 1747 
Q 3566 888 3137 398 
Q 2709 -91 1959 -91 
Q 1206 -91 779 398 
Q 353 888 353 1747 
Q 353 2609 779 3096 
Q 1206 3584 1959 3584 
z
" transform="scale(0.015625)"/>
       <path id="DejaVuSans-6e" d="M 3513 2113 
L 3513 0 
L 2938 0 
L 2938 2094 
Q 2938 2591 2744 2837 
Q 2550 3084 2163 3084 
Q 1697 3084 1428 2787 
Q 1159 2491 1159 1978 
L 1159 0 
L 581 0 
L 581 3500 
L 1159 3500 
L 1159 2956 
Q 1366 3272 1645 3428 
Q 1925 3584 2291 3584 
Q 2894 3584 3203 3211 
Q 3513 2838 3513 2113 
z
" transform="scale(0.015625)"/>
       <path id="DejaVuSans-73" d="M 2834 3397 
L 2834 2853 
Q 2591 2978 2328 3040 
Q 2066 3103 1784 3103 
Q 1356 3103 1142 2972 
Q 928 2841 928 2578 
Q 928 2378 1081 2264 
Q 1234 2150 1697 2047 
L 1894 2003 
Q 2506 1872 2764 1633 
Q 3022 1394 3022 966 
Q 3022 478 2636 193 
Q 2250 -91 1575 -91 
Q 1294 -91 989 -36 
Q 684 19 347 128 
L 347 722 
Q 666 556 975 473 
Q 1284 391 1588 391 
Q 1994 391 2212 530 
Q 2431 669 2431 922 
Q 2431 1156 2273 1281 
Q 2116 1406 1581 1522 
L 1381 1569 
Q 847 1681 609 1914 
Q 372 2147 372 2553 
Q 372 3047 722 3315 
Q 1072 3584 1716 3584 
Q 2034 3584 2315 3537 
Q 2597 3491 2834 3397 
z
" transform="scale(0.015625)"/>
      </defs>
      <use xlink:href="#DejaVuSans-69"/>
      <use xlink:href="#DejaVuSans-74" x="27.783203"/>
      <use xlink:href="#DejaVuSans-65" x="66.992188"/>
      <use xlink:href="#DejaVuSans-72" x="128.515625"/>
      <use xlink:href="#DejaVuSans-61" x="169.628906"/>
      <use xlink:href="#DejaVuSans-74" x="230.908203"/>
      <use xlink:href="#DejaVuSans-69" x="270.117188"/>
      <use xlink:href="#DejaVuSans-6f" x="297.900391"/>
      <use xlink:href="#DejaVuSans-6e" x="359.082031"/>
      <use xlink:href="#DejaVuSans-73" x="422.460938"/>
     </g>
    </g>
   </g>
   <g id="matplotlib.axis_2">
    <g id="ytick_1">
     <g id="line2d_8">
      <defs>
       <path id="m6100ff36c5" d="M 0 0 
L -3.5 0 
" style="stroke: #000000; stroke-width: 0.8"/>
      </defs>
      <g>
       <use xlink:href="#m6100ff36c5" x="57.6" y="303.380958" style="stroke: #000000; stroke-width: 0.8"/>
      </g>
     </g>
     <g id="text_9">
      <!-- 0.500 -->
      <g transform="translate(21.971875 307.180176) scale(0.1 -0.1)">
       <defs>
        <path id="DejaVuSans-2e" d="M 684 794 
L 1344 794 
L 1344 0 
L 684 0 
L 684 794 
z
" transform="scale(0.015625)"/>
       </defs>
       <use xlink:href="#DejaVuSans-30"/>
       <use xlink:href="#DejaVuSans-2e" x="63.623047"/>
       <use xlink:href="#DejaVuSans-35" x="95.410156"/>
       <use xlink:href="#DejaVuSans-30" x="159.033203"/>
       <use xlink:href="#DejaVuSans-30" x="222.65625"/>
      </g>
     </g>
    </g>
    <g id="ytick_2">
     <g id="line2d_9">
      <g>
       <use xlink:href="#m6100ff36c5" x="57.6" y="271.850031" style="stroke: #000000; stroke-width: 0.8"/>
      </g>
     </g>
     <g id="text_10">
      <!-- 0.525 -->
      <g transform="translate(21.971875 275.64925) scale(0.1 -0.1)">
       <use xlink:href="#DejaVuSans-30"/>
       <use xlink:href="#DejaVuSans-2e" x="63.623047"/>
       <use xlink:href="#DejaVuSans-35" x="95.410156"/>
       <use xlink:href="#DejaVuSans-32" x="159.033203"/>
       <use xlink:href="#DejaVuSans-35" x="222.65625"/>
      </g>
     </g>
    </g>
    <g id="ytick_3">
     <g id="line2d_10">
      <g>
       <use xlink:href="#m6100ff36c5" x="57.6" y="240.319105" style="stroke: #000000; stroke-width: 0.8"/>
      </g>
     </g>
     <g id="text_11">
      <!-- 0.550 -->
      <g transform="translate(21.971875 244.118324) scale(0.1 -0.1)">
       <use xlink:href="#DejaVuSans-30"/>
       <use xlink:href="#DejaVuSans-2e" x="63.623047"/>
       <use xlink:href="#DejaVuSans-35" x="95.410156"/>
       <use xlink:href="#DejaVuSans-35" x="159.033203"/>
       <use xlink:href="#DejaVuSans-30" x="222.65625"/>
      </g>
     </g>
    </g>
    <g id="ytick_4">
     <g id="line2d_11">
      <g>
       <use xlink:href="#m6100ff36c5" x="57.6" y="208.788179" style="stroke: #000000; stroke-width: 0.8"/>
      </g>
     </g>
     <g id="text_12">
      <!-- 0.575 -->
      <g transform="translate(21.971875 212.587398) scale(0.1 -0.1)">
       <defs>
        <path id="DejaVuSans-37" d="M 525 4666 
L 3525 4666 
L 3525 4397 
L 1831 0 
L 1172 0 
L 2766 4134 
L 525 4134 
L 525 4666 
z
" transform="scale(0.015625)"/>
       </defs>
       <use xlink:href="#DejaVuSans-30"/>
       <use xlink:href="#DejaVuSans-2e" x="63.623047"/>
       <use xlink:href="#DejaVuSans-35" x="95.410156"/>
       <use xlink:href="#DejaVuSans-37" x="159.033203"/>
       <use xlink:href="#DejaVuSans-35" x="222.65625"/>
      </g>
     </g>
    </g>
    <g id="ytick_5">
     <g id="line2d_12">
      <g>
       <use xlink:href="#m6100ff36c5" x="57.6" y="177.257253" style="stroke: #000000; stroke-width: 0.8"/>
      </g>
     </g>
     <g id="text_13">
      <!-- 0.600 -->
      <g transform="translate(21.971875 181.056471) scale(0.1 -0.1)">
       <defs>
        <path id="DejaVuSans-36" d="M 2113 2584 
Q 1688 2584 1439 2293 
Q 1191 2003 1191 1497 
Q 1191 994 1439 701 
Q 1688 409 2113 409 
Q 2538 409 2786 701 
Q 3034 994 3034 1497 
Q 3034 2003 2786 2293 
Q 2538 2584 2113 2584 
z
M 3366 4563 
L 3366 3988 
Q 3128 4100 2886 4159 
Q 2644 4219 2406 4219 
Q 1781 4219 1451 3797 
Q 1122 3375 1075 2522 
Q 1259 2794 1537 2939 
Q 1816 3084 2150 3084 
Q 2853 3084 3261 2657 
Q 3669 2231 3669 1497 
Q 3669 778 3244 343 
Q 2819 -91 2113 -91 
Q 1303 -91 875 529 
Q 447 1150 447 2328 
Q 447 3434 972 4092 
Q 1497 4750 2381 4750 
Q 2619 4750 2861 4703 
Q 3103 4656 3366 4563 
z
" transform="scale(0.015625)"/>
       </defs>
       <use xlink:href="#DejaVuSans-30"/>
       <use xlink:href="#DejaVuSans-2e" x="63.623047"/>
       <use xlink:href="#DejaVuSans-36" x="95.410156"/>
       <use xlink:href="#DejaVuSans-30" x="159.033203"/>
       <use xlink:href="#DejaVuSans-30" x="222.65625"/>
      </g>
     </g>
    </g>
    <g id="ytick_6">
     <g id="line2d_13">
      <g>
       <use xlink:href="#m6100ff36c5" x="57.6" y="145.726326" style="stroke: #000000; stroke-width: 0.8"/>
      </g>
     </g>
     <g id="text_14">
      <!-- 0.625 -->
      <g transform="translate(21.971875 149.525545) scale(0.1 -0.1)">
       <use xlink:href="#DejaVuSans-30"/>
       <use xlink:href="#DejaVuSans-2e" x="63.623047"/>
       <use xlink:href="#DejaVuSans-36" x="95.410156"/>
       <use xlink:href="#DejaVuSans-32" x="159.033203"/>
       <use xlink:href="#DejaVuSans-35" x="222.65625"/>
      </g>
     </g>
    </g>
    <g id="ytick_7">
     <g id="line2d_14">
      <g>
       <use xlink:href="#m6100ff36c5" x="57.6" y="114.1954" style="stroke: #000000; stroke-width: 0.8"/>
      </g>
     </g>
     <g id="text_15">
      <!-- 0.650 -->
      <g transform="translate(21.971875 117.994619) scale(0.1 -0.1)">
       <use xlink:href="#DejaVuSans-30"/>
       <use xlink:href="#DejaVuSans-2e" x="63.623047"/>
       <use xlink:href="#DejaVuSans-36" x="95.410156"/>
       <use xlink:href="#DejaVuSans-35" x="159.033203"/>
       <use xlink:href="#DejaVuSans-30" x="222.65625"/>
      </g>
     </g>
    </g>
    <g id="ytick_8">
     <g id="line2d_15">
      <g>
       <use xlink:href="#m6100ff36c5" x="57.6" y="82.664474" style="stroke: #000000; stroke-width: 0.8"/>
      </g>
     </g>
     <g id="text_16">
      <!-- 0.675 -->
      <g transform="translate(21.971875 86.463692) scale(0.1 -0.1)">
       <use xlink:href="#DejaVuSans-30"/>
       <use xlink:href="#DejaVuSans-2e" x="63.623047"/>
       <use xlink:href="#DejaVuSans-36" x="95.410156"/>
       <use xlink:href="#DejaVuSans-37" x="159.033203"/>
       <use xlink:href="#DejaVuSans-35" x="222.65625"/>
      </g>
     </g>
    </g>
    <g id="ytick_9">
     <g id="line2d_16">
      <g>
       <use xlink:href="#m6100ff36c5" x="57.6" y="51.133547" style="stroke: #000000; stroke-width: 0.8"/>
      </g>
     </g>
     <g id="text_17">
      <!-- 0.700 -->
      <g transform="translate(21.971875 54.932766) scale(0.1 -0.1)">
       <use xlink:href="#DejaVuSans-30"/>
       <use xlink:href="#DejaVuSans-2e" x="63.623047"/>
       <use xlink:href="#DejaVuSans-37" x="95.410156"/>
       <use xlink:href="#DejaVuSans-30" x="159.033203"/>
       <use xlink:href="#DejaVuSans-30" x="222.65625"/>
      </g>
     </g>
    </g>
    <g id="text_18">
     <!-- cost -->
     <g transform="translate(15.892188 184.901437) rotate(-90) scale(0.1 -0.1)">
      <defs>
       <path id="DejaVuSans-63" d="M 3122 3366 
L 3122 2828 
Q 2878 2963 2633 3030 
Q 2388 3097 2138 3097 
Q 1578 3097 1268 2742 
Q 959 2388 959 1747 
Q 959 1106 1268 751 
Q 1578 397 2138 397 
Q 2388 397 2633 464 
Q 2878 531 3122 666 
L 3122 134 
Q 2881 22 2623 -34 
Q 2366 -91 2075 -91 
Q 1284 -91 818 406 
Q 353 903 353 1747 
Q 353 2603 823 3093 
Q 1294 3584 2113 3584 
Q 2378 3584 2631 3529 
Q 2884 3475 3122 3366 
z
" transform="scale(0.015625)"/>
      </defs>
      <use xlink:href="#DejaVuSans-63"/>
      <use xlink:href="#DejaVuSans-6f" x="54.980469"/>
      <use xlink:href="#DejaVuSans-73" x="116.162109"/>
      <use xlink:href="#DejaVuSans-74" x="168.261719"/>
     </g>
    </g>
   </g>
   <g id="line2d_17">
    <path d="M 73.832727 53.568 
L 74.15749 56.350582 
L 74.482253 57.428222 
L 75.240033 58.861408 
L 80.111475 66.285507 
L 81.51878 68.466338 
L 82.926086 71.008573 
L 84.333391 74.160762 
L 87.148002 81.264004 
L 101.870582 119.709403 
L 103.494396 124.911111 
L 105.226465 129.354319 
L 107.283296 134.027915 
L 109.448381 138.376653 
L 111.505212 141.996135 
L 113.562043 145.160479 
L 115.727128 148.092275 
L 118.108722 150.910977 
L 120.815079 153.763962 
L 124.712233 157.537497 
L 130.016692 162.302616 
L 134.130354 166.065449 
L 144.631018 175.986166 
L 155.564699 187.061004 
L 161.085666 192.797884 
L 165.199328 196.969162 
L 172.34411 203.860889 
L 178.081586 209.134985 
L 183.169537 213.52807 
L 190.09781 219.173935 
L 195.727031 223.423781 
L 201.572762 227.565679 
L 207.635001 231.568282 
L 213.805494 235.344345 
L 220.733767 239.304133 
L 230.909668 244.885876 
L 265.009762 263.212561 
L 273.561849 267.890321 
L 275.61868 268.747773 
L 276.268206 268.704851 
L 276.917731 268.162027 
L 277.567257 266.737608 
L 278.433291 263.362353 
L 278.758054 261.365973 
L 278.866308 261.194819 
L 279.082817 260.13684 
L 279.191071 259.193232 
L 279.299325 259.279435 
L 279.407579 258.388628 
L 279.515834 258.683758 
L 279.624088 257.824302 
L 279.732342 258.192961 
L 279.840597 257.42199 
L 279.948851 257.918166 
L 280.057105 257.266664 
L 280.165359 257.934368 
L 280.273614 257.408378 
L 280.381868 258.197777 
L 280.490122 257.831054 
L 280.598376 258.632169 
L 280.706631 258.317695 
L 280.814885 259.174524 
L 280.923139 258.911137 
L 281.031393 259.791583 
L 281.139648 259.580859 
L 281.247902 260.423131 
L 281.356156 260.190938 
L 281.464411 260.983091 
L 281.572665 260.759407 
L 281.680919 261.501898 
L 281.789173 261.280388 
L 281.897428 261.968274 
L 282.005682 261.739919 
L 282.113936 262.392292 
L 282.22219 262.136229 
L 282.330445 262.75062 
L 282.438699 262.480513 
L 282.546953 262.986183 
L 282.655207 262.653742 
L 282.763462 263.141898 
L 282.871716 262.773924 
L 282.97997 263.235445 
L 283.088225 262.825531 
L 283.196479 263.280269 
L 283.304733 262.85034 
L 283.412987 263.263672 
L 283.521242 262.805494 
L 283.629496 263.19891 
L 283.73775 262.727136 
L 283.846004 263.121242 
L 283.954259 262.626871 
L 284.062513 263.008183 
L 284.170767 262.469084 
L 284.279021 262.828294 
L 284.387276 262.209678 
L 284.49553 262.59434 
L 284.603784 261.950446 
L 284.712039 262.333313 
L 284.820293 261.667625 
L 284.928547 262.081162 
L 285.036801 261.399883 
L 285.145056 261.827705 
L 285.25331 261.159042 
L 285.361564 261.641916 
L 285.469818 260.943172 
L 285.578073 261.440547 
L 285.686327 260.722785 
L 285.794581 261.273534 
L 285.902835 260.611723 
L 286.01109 261.208685 
L 286.119344 260.575542 
L 286.227598 261.237331 
L 286.335853 260.556576 
L 286.444107 261.239064 
L 286.552361 260.562932 
L 286.660615 261.266398 
L 286.76887 260.633268 
L 286.877124 261.373687 
L 286.985378 260.765821 
L 287.093632 261.524114 
L 287.201887 260.914903 
L 287.310141 261.6751 
L 287.418395 261.061088 
L 287.526649 261.803348 
L 287.634904 261.223458 
L 287.743158 261.968133 
L 287.851412 261.384159 
L 287.959667 262.094654 
L 288.067921 261.548464 
L 288.176175 262.257305 
L 288.284429 261.717104 
L 288.392684 262.439528 
L 288.500938 261.903049 
L 288.609192 262.635535 
L 288.717446 262.140696 
L 288.825701 262.848366 
L 288.933955 262.359069 
L 289.042209 263.047115 
L 289.150463 262.560129 
L 289.258718 263.247152 
L 289.366972 262.756683 
L 289.475226 263.467904 
L 289.583481 262.985068 
L 289.691735 263.665796 
L 289.799989 263.160428 
L 289.908243 263.848046 
L 290.016498 263.31665 
L 290.124752 263.977687 
L 290.233006 263.415975 
L 290.34126 264.032371 
L 290.449515 263.399658 
L 290.557769 264.041845 
L 290.666023 263.391195 
L 290.774277 264.038144 
L 290.882532 263.419566 
L 290.990786 264.042936 
L 291.09904 263.380613 
L 291.207295 264.007351 
L 291.315549 263.370038 
L 291.423803 264.004794 
L 291.532057 263.354602 
L 291.640312 263.985765 
L 291.748566 263.336232 
L 291.85682 263.999621 
L 291.965074 263.32193 
L 292.073329 263.980865 
L 292.181583 263.320565 
L 292.289837 263.983157 
L 292.398091 263.292161 
L 292.506346 263.954321 
L 292.6146 263.27712 
L 292.722854 263.948658 
L 292.831109 263.258365 
L 292.939363 263.932009 
L 293.047617 263.217304 
L 293.155871 263.910904 
L 293.264126 263.156409 
L 293.37238 263.86424 
L 293.480634 263.136687 
L 293.588888 263.861028 
L 293.697143 263.148866 
L 293.805397 263.890743 
L 293.913651 263.210948 
L 294.021905 263.949961 
L 294.13016 263.286578 
L 294.238414 264.013161 
L 294.346668 263.332385 
L 294.454923 264.080836 
L 294.563177 263.401324 
L 294.671431 264.159328 
L 294.779685 263.478211 
L 294.88794 264.244399 
L 294.996194 263.534097 
L 295.104448 264.267585 
L 295.212702 263.533544 
L 295.320957 264.260291 
L 295.429211 263.536975 
L 295.537465 264.289875 
L 295.645719 263.63825 
L 295.753974 264.393823 
L 295.862228 263.724314 
L 295.970482 264.478439 
L 296.078737 263.841966 
L 296.186991 264.620091 
L 296.295245 264.020116 
L 296.403499 264.797522 
L 296.511754 264.227667 
L 296.620008 264.994287 
L 296.728262 264.506041 
L 296.836516 265.280475 
L 296.944771 264.820136 
L 297.053025 265.596617 
L 297.161279 265.144815 
L 297.269533 265.886011 
L 297.377788 265.424601 
L 297.486042 266.193782 
L 297.594296 265.71828 
L 297.702551 266.447979 
L 297.810805 266.019481 
L 297.919059 266.761029 
L 298.027313 266.280454 
L 298.135568 267.000585 
L 298.243822 266.542216 
L 298.352076 267.222642 
L 298.46033 266.726887 
L 298.568585 267.382422 
L 298.676839 266.855313 
L 298.785093 267.495759 
L 298.893347 266.953109 
L 299.001602 267.55727 
L 299.109856 266.97205 
L 299.21811 267.54621 
L 299.326365 266.896734 
L 299.434619 267.480441 
L 299.542873 266.76658 
L 299.651127 267.355568 
L 299.759382 266.608693 
L 299.867636 267.174691 
L 299.97589 266.412571 
L 300.084144 266.981623 
L 300.192399 266.145891 
L 300.300653 266.692523 
L 300.408907 265.810927 
L 300.517161 266.409877 
L 300.625416 265.529541 
L 300.73367 266.164359 
L 300.841924 265.246717 
L 300.950179 265.936969 
L 301.058433 265.071448 
L 301.166687 265.807265 
L 301.274941 264.964766 
L 301.383196 265.743999 
L 301.49145 264.878319 
L 301.599704 265.712723 
L 301.707958 264.839245 
L 301.816213 265.703263 
L 301.924467 264.893668 
L 302.032721 265.803062 
L 302.140975 264.968789 
L 302.24923 265.865395 
L 302.357484 265.035512 
L 302.465738 265.949351 
L 302.573993 265.137453 
L 302.682247 266.06005 
L 302.790501 265.237656 
L 302.898755 266.164371 
L 303.00701 265.333094 
L 303.115264 266.296962 
L 303.223518 265.510566 
L 303.331772 266.476626 
L 303.440027 265.715584 
L 303.548281 266.676713 
L 303.656535 265.887445 
L 303.764789 266.840949 
L 303.873044 266.053996 
L 303.981298 266.981837 
L 304.089552 266.22528 
L 304.197807 267.143051 
L 304.306061 266.372277 
L 304.414315 267.273395 
L 304.522569 266.47899 
L 304.630824 267.382086 
L 304.739078 266.583957 
L 304.847332 267.47032 
L 304.955586 266.669525 
L 305.063841 267.570428 
L 305.172095 266.767878 
L 305.280349 267.656019 
L 305.388603 266.839964 
L 305.496858 267.74822 
L 305.605112 266.929388 
L 305.713366 267.827949 
L 305.821621 266.989325 
L 305.929875 267.889146 
L 306.038129 267.063223 
L 306.146383 267.972015 
L 306.254638 267.108836 
L 306.362892 268.022167 
L 306.471146 267.161917 
L 306.5794 268.077076 
L 306.687655 267.171612 
L 306.795909 268.114686 
L 306.904163 267.199213 
L 307.012417 268.10358 
L 307.120672 267.137548 
L 307.228926 268.056902 
L 307.33718 267.074443 
L 307.445435 267.958809 
L 307.553689 266.942324 
L 307.661943 267.847342 
L 307.770197 266.806041 
L 307.878452 267.73983 
L 307.986706 266.698374 
L 308.09496 267.701628 
L 308.203214 266.651747 
L 308.311469 267.685377 
L 308.419723 266.639332 
L 308.527977 267.679047 
L 308.636231 266.661866 
L 308.744486 267.735275 
L 308.85274 266.727998 
L 308.960994 267.820667 
L 309.069249 266.818991 
L 309.177503 267.898453 
L 309.285757 266.87218 
L 309.394011 267.961052 
L 309.502266 266.98217 
L 309.61052 268.068522 
L 309.718774 267.099222 
L 309.827028 268.181418 
L 309.935283 267.200863 
L 310.043537 268.260833 
L 310.151791 267.250871 
L 310.260045 268.388491 
L 310.3683 267.393076 
L 310.476554 268.533337 
L 310.584808 267.54488 
L 310.693063 268.675292 
L 310.801317 267.718874 
L 310.909571 268.842039 
L 311.017825 267.8503 
L 311.12608 268.959316 
L 311.234334 267.967489 
L 311.342588 269.077688 
L 311.450842 268.098681 
L 311.559097 269.19973 
L 311.667351 268.225067 
L 311.775605 269.342748 
L 311.883859 268.34821 
L 311.992114 269.440175 
L 312.100368 268.43338 
L 312.208622 269.51231 
L 312.316877 268.488448 
L 312.425131 269.550935 
L 312.533385 268.512427 
L 312.641639 269.544742 
L 312.749894 268.490906 
L 312.858148 269.526212 
L 312.966402 268.456849 
L 313.074656 269.490103 
L 313.182911 268.407974 
L 313.291165 269.466771 
L 313.399419 268.355193 
L 313.507673 269.404293 
L 313.615928 268.297876 
L 313.724182 269.367447 
L 313.832436 268.206826 
L 313.940691 269.303376 
L 314.048945 268.143761 
L 314.157199 269.284324 
L 314.265453 268.134939 
L 314.373708 269.287468 
L 314.481962 268.151152 
L 314.590216 269.274378 
L 314.69847 268.127566 
L 314.806725 269.265816 
L 314.914979 268.097029 
L 315.023233 269.253917 
L 315.131487 268.075485 
L 315.239742 269.240579 
L 315.347996 268.099495 
L 315.45625 269.314654 
L 315.564505 268.19286 
L 315.672759 269.424763 
L 315.781013 268.357594 
L 315.889267 269.628201 
L 315.997522 268.603128 
L 316.105776 269.885466 
L 316.21403 268.87146 
L 316.322284 270.133849 
L 316.430539 269.138991 
L 316.538793 270.39813 
L 316.647047 269.409162 
L 316.755301 270.654425 
L 316.863556 269.700416 
L 316.97181 270.882699 
L 317.080064 269.934561 
L 317.188319 271.115191 
L 317.296573 270.190446 
L 317.404827 271.378856 
L 317.513081 270.469948 
L 317.621336 271.655398 
L 317.72959 270.752049 
L 317.837844 271.865522 
L 317.946098 270.916949 
L 318.054353 272.005532 
L 318.162607 271.032603 
L 318.270861 272.099999 
L 318.379115 271.095587 
L 318.48737 272.131339 
L 318.595624 271.117482 
L 318.703878 272.135851 
L 318.812133 271.085183 
L 318.920387 272.159772 
L 319.028641 271.123623 
L 319.136895 272.179171 
L 319.24515 271.103187 
L 319.353404 272.163839 
L 319.461658 271.090817 
L 319.569912 272.180035 
L 319.678167 271.089896 
L 319.786421 272.158412 
L 319.894675 271.072206 
L 320.002929 272.145693 
L 320.111184 271.028015 
L 320.219438 272.109227 
L 320.327692 270.996787 
L 320.435947 272.085885 
L 320.544201 270.994646 
L 320.652455 272.127292 
L 320.760709 271.04126 
L 320.868964 272.14671 
L 320.977218 271.044148 
L 321.085472 272.139937 
L 321.193726 271.056766 
L 321.301981 272.160825 
L 321.410235 271.102991 
L 321.518489 272.228221 
L 321.626743 271.167412 
L 321.734998 272.335331 
L 321.843252 271.314409 
L 321.951506 272.481227 
L 322.059761 271.449831 
L 322.168015 272.58512 
L 322.276269 271.561308 
L 322.384523 272.724479 
L 322.492778 271.693261 
L 322.601032 272.88695 
L 322.709286 271.851457 
L 322.81754 273.028906 
L 322.925795 271.983687 
L 323.034049 273.138632 
L 323.142303 272.077883 
L 323.250557 273.21809 
L 323.358812 272.122342 
L 323.467066 273.232312 
L 323.57532 272.122279 
L 323.683575 273.276761 
L 323.791829 272.161433 
L 323.900083 273.282869 
L 324.008337 272.171473 
L 324.116592 273.282362 
L 324.224846 272.14406 
L 324.3331 273.285811 
L 324.441354 272.106185 
L 324.549609 273.257241 
L 324.657863 272.137312 
L 324.766117 273.309525 
L 324.874371 272.162853 
L 324.982626 273.316904 
L 325.09088 272.164477 
L 325.199134 273.332449 
L 325.307389 272.155284 
L 325.415643 273.310248 
L 325.523897 272.147435 
L 325.632151 273.332163 
L 325.740406 272.165969 
L 325.84866 273.381508 
L 325.956914 272.225257 
L 326.065168 273.468277 
L 326.173423 272.294292 
L 326.281677 273.57244 
L 326.389931 272.408059 
L 326.498185 273.679368 
L 326.60644 272.496234 
L 326.714694 273.771415 
L 326.822948 272.620275 
L 326.931203 273.884524 
L 327.039457 272.727449 
L 327.147711 274.00549 
L 327.255965 272.856462 
L 327.36422 274.115892 
L 327.472474 272.945125 
L 327.580728 274.210792 
L 327.688982 273.024924 
L 327.797237 274.285745 
L 327.905491 273.110249 
L 328.013745 274.362007 
L 328.121999 273.174626 
L 328.230254 274.369235 
L 328.338508 273.165968 
L 328.446762 274.386039 
L 328.555017 273.160596 
L 328.663271 274.339772 
L 328.771525 273.09633 
L 328.879779 274.315915 
L 328.988034 273.04709 
L 329.096288 274.299825 
L 329.204542 273.071781 
L 329.312796 274.380676 
L 329.421051 273.145958 
L 329.529305 274.423028 
L 329.637559 273.162735 
L 329.745813 274.451089 
L 329.854068 273.273888 
L 329.962322 274.577816 
L 330.070576 273.298682 
L 330.178831 274.61896 
L 330.287085 273.338581 
L 330.395339 274.650612 
L 330.503593 273.380014 
L 330.611848 274.70004 
L 330.720102 273.406706 
L 330.828356 274.733943 
L 330.93661 273.463132 
L 331.044865 274.832672 
L 331.153119 273.572349 
L 331.261373 274.932821 
L 331.369627 273.677225 
L 331.477882 275.035652 
L 331.586136 273.756516 
L 331.69439 275.083483 
L 331.802645 273.7538 
L 331.910899 275.070713 
L 332.019153 273.78333 
L 332.127407 275.135188 
L 332.235662 273.796361 
L 332.343916 275.118654 
L 332.45217 273.752253 
L 332.560424 275.06396 
L 332.668679 273.692529 
L 332.776933 275.024066 
L 332.885187 273.64382 
L 332.993441 274.976218 
L 333.101696 273.589797 
L 333.20995 274.97883 
L 333.318204 273.688261 
L 333.426459 275.152004 
L 333.534713 273.884696 
L 333.642967 275.350681 
L 333.751221 274.076398 
L 333.859476 275.541847 
L 333.96773 274.27664 
L 334.075984 275.694437 
L 334.184238 274.400334 
L 334.292493 275.804008 
L 334.400747 274.494645 
L 334.509001 275.874123 
L 334.617255 274.5528 
L 334.72551 275.927334 
L 334.833764 274.59063 
L 334.942018 275.948936 
L 335.050273 274.592003 
L 335.158527 275.945094 
L 335.266781 274.643683 
L 335.375035 276.022698 
L 335.48329 274.723256 
L 335.591544 276.115086 
L 335.699798 274.803546 
L 335.808052 276.235424 
L 335.916307 274.970467 
L 336.024561 276.411409 
L 336.132815 275.163159 
L 336.241069 276.589989 
L 336.349324 275.35803 
L 336.457578 276.7615 
L 336.565832 275.529583 
L 336.674087 276.960703 
L 336.782341 275.706108 
L 336.890595 277.104273 
L 336.998849 275.880365 
L 337.107104 277.277041 
L 337.215358 276.013929 
L 337.323612 277.375834 
L 337.431866 276.113382 
L 337.540121 277.435661 
L 337.648375 276.123088 
L 337.756629 277.457334 
L 337.864883 276.12624 
L 337.973138 277.427862 
L 338.081392 276.057463 
L 338.189646 277.352326 
L 338.297901 275.95049 
L 338.406155 277.280063 
L 338.514409 275.861558 
L 338.622663 277.214505 
L 338.730918 275.796383 
L 338.839172 277.210105 
L 338.947426 275.740608 
L 339.05568 277.165961 
L 339.163935 275.73735 
L 339.272189 277.18722 
L 339.380443 275.72276 
L 339.488697 277.183946 
L 339.596952 275.792395 
L 339.705206 277.286432 
L 339.81346 275.895059 
L 339.921715 277.427741 
L 340.029969 276.097228 
L 340.138223 277.627689 
L 340.246477 276.269268 
L 340.354732 277.798143 
L 340.462986 276.430501 
L 340.57124 277.991208 
L 340.679494 276.659121 
L 340.787749 278.165824 
L 340.896003 276.749259 
L 341.004257 278.266969 
L 341.112511 276.907397 
L 341.220766 278.37316 
L 341.32902 276.942651 
L 341.437274 278.428663 
L 341.545529 277.021015 
L 341.653783 278.48377 
L 341.762037 277.058661 
L 341.870291 278.523265 
L 341.978546 277.082209 
L 342.0868 278.553337 
L 342.195054 277.096656 
L 342.303308 278.622684 
L 342.411563 277.227174 
L 342.519817 278.76233 
L 342.628071 277.300903 
L 342.736325 278.832506 
L 342.84458 277.416047 
L 342.952834 278.929054 
L 343.061088 277.399836 
L 343.169343 278.940517 
L 343.277597 277.528138 
L 343.385851 279.027785 
L 343.494105 277.551862 
L 343.60236 279.054128 
L 343.710614 277.616746 
L 343.818868 279.121104 
L 343.927122 277.67862 
L 344.035377 279.210164 
L 344.143631 277.836352 
L 344.251885 279.316037 
L 344.360139 277.809579 
L 344.468394 279.349888 
L 344.576648 277.994073 
L 344.684902 279.446598 
L 344.793157 277.95243 
L 344.901411 279.502545 
L 345.009665 278.074129 
L 345.117919 279.563404 
L 345.226174 278.033732 
L 345.334428 279.550819 
L 345.442682 278.066578 
L 345.550936 279.57244 
L 345.659191 278.07023 
L 345.767445 279.627566 
L 345.875699 278.119936 
L 345.983953 279.701458 
L 346.092208 278.177709 
L 346.200462 279.752061 
L 346.308716 278.218548 
L 346.416971 279.792402 
L 346.525225 278.202952 
L 346.633479 279.783367 
L 346.741733 278.225628 
L 346.849988 279.814011 
L 346.958242 278.24693 
L 347.066496 279.81323 
L 347.17475 278.235769 
L 347.283005 279.790683 
L 347.391259 278.21131 
L 347.499513 279.793809 
L 347.607767 278.255957 
L 347.716022 279.824552 
L 347.824276 278.271938 
L 347.93253 279.886019 
L 348.040785 278.364724 
L 348.149039 279.946531 
L 348.257293 278.397038 
L 348.365547 280.014412 
L 348.473802 278.452155 
L 348.582056 280.099217 
L 348.69031 278.559232 
L 348.798564 280.201969 
L 348.906819 278.653001 
L 349.015073 280.288035 
L 349.123327 278.715499 
L 349.231581 280.366651 
L 349.339836 278.76997 
L 349.44809 280.418765 
L 349.556344 278.837736 
L 349.664599 280.501442 
L 349.772853 278.953756 
L 349.881107 280.597608 
L 349.989361 279.040678 
L 350.097616 280.72022 
L 350.20587 279.182861 
L 350.314124 280.858988 
L 350.422378 279.338186 
L 350.530633 281.055971 
L 350.638887 279.563479 
L 350.747141 281.240756 
L 350.855395 279.741177 
L 350.96365 281.387877 
L 351.071904 279.902535 
L 351.180158 281.53551 
L 351.288413 280.039803 
L 351.396667 281.67495 
L 351.504921 280.204556 
L 351.613175 281.809193 
L 351.72143 280.285242 
L 351.829684 281.888798 
L 351.937938 280.339489 
L 352.046192 281.927391 
L 352.154447 280.38052 
L 352.262701 281.945234 
L 352.370955 280.337204 
L 352.479209 281.954056 
L 352.587464 280.331796 
L 352.695718 281.961957 
L 352.803972 280.32549 
L 352.912226 281.931901 
L 353.020481 280.27773 
L 353.128735 281.871077 
L 353.236989 280.22907 
L 353.345244 281.89111 
L 353.453498 280.269732 
L 353.561752 281.962859 
L 353.670006 280.379833 
L 353.778261 282.040208 
L 353.886515 280.458228 
L 353.994769 282.120465 
L 354.103023 280.553777 
L 354.211278 282.203575 
L 354.319532 280.576934 
L 354.427786 282.264293 
L 354.53604 280.688007 
L 354.644295 282.333357 
L 354.752549 280.738886 
L 354.860803 282.435384 
L 354.969058 280.947753 
L 355.077312 282.605582 
L 355.185566 281.100228 
L 355.29382 282.781832 
L 355.402075 281.285539 
L 355.510329 282.959689 
L 355.618583 281.481329 
L 355.726837 283.18108 
L 355.835092 281.672157 
L 355.943346 283.351896 
L 356.0516 281.818236 
L 356.159854 283.500457 
L 356.268109 281.966104 
L 356.376363 283.644437 
L 356.484617 282.096454 
L 356.592872 283.707852 
L 356.701126 282.197971 
L 356.80938 283.7589 
L 356.917634 282.200778 
L 357.025889 283.765983 
L 357.134143 282.194011 
L 357.242397 283.770681 
L 357.350651 282.19925 
L 357.458906 283.7872 
L 357.56716 282.237694 
L 357.675414 283.84403 
L 357.783668 282.325459 
L 357.891923 283.927651 
L 358.000177 282.409355 
L 358.108431 284.021745 
L 358.216686 282.536685 
L 358.32494 284.17526 
L 358.433194 282.684297 
L 358.541448 284.294343 
L 358.649703 282.820223 
L 358.757957 284.462271 
L 358.866211 282.984026 
L 358.974465 284.576989 
L 359.08272 283.122594 
L 359.190974 284.716762 
L 359.299228 283.240321 
L 359.407482 284.844168 
L 359.515737 283.375739 
L 359.623991 284.92916 
L 359.732245 283.430254 
L 359.8405 284.977002 
L 359.948754 283.483125 
L 360.057008 285.065956 
L 360.165262 283.566427 
L 360.273517 285.129599 
L 360.381771 283.619835 
L 360.490025 285.179209 
L 360.598279 283.667723 
L 360.706534 285.232134 
L 360.814788 283.714277 
L 360.923042 285.252379 
L 361.031296 283.7047 
L 361.139551 285.29932 
L 361.247805 283.734818 
L 361.356059 285.292689 
L 361.464314 283.692886 
L 361.572568 285.268485 
L 361.680822 283.656617 
L 361.789076 285.222519 
L 361.897331 283.58877 
L 362.005585 285.18655 
L 362.113839 283.592892 
L 362.222093 285.253793 
L 362.330348 283.703748 
L 362.438602 285.391113 
L 362.546856 283.843119 
L 362.65511 285.525862 
L 362.763365 283.990665 
L 362.871619 285.670483 
L 362.979873 284.120874 
L 363.088128 285.807551 
L 363.196382 284.252332 
L 363.304636 285.900032 
L 363.41289 284.347548 
L 363.521145 285.981098 
L 363.629399 284.437543 
L 363.737653 286.044265 
L 363.845907 284.442688 
L 363.954162 286.048964 
L 364.062416 284.513365 
L 364.17067 286.108966 
L 364.278924 284.524232 
L 364.387179 286.126338 
L 364.495433 284.53826 
L 364.603687 286.140481 
L 364.711942 284.555677 
L 364.820196 286.167859 
L 364.92845 284.583376 
L 365.036704 286.190904 
L 365.144959 284.59621 
L 365.253213 286.207364 
L 365.361467 284.595246 
L 365.469721 286.20189 
L 365.577976 284.602223 
L 365.68623 286.219567 
L 365.794484 284.542801 
L 365.902738 286.206545 
L 366.010993 284.622515 
L 366.119247 286.263667 
L 366.227501 284.634664 
L 366.335756 286.282796 
L 366.44401 284.697461 
L 366.552264 286.42057 
L 366.660518 284.850183 
L 366.768773 286.528935 
L 366.877027 284.838872 
L 366.985281 286.573071 
L 367.093535 284.987589 
L 367.20179 286.64581 
L 367.310044 284.955091 
L 367.418298 286.63992 
L 367.526552 284.996667 
L 367.634807 286.644727 
L 367.743061 284.916412 
L 367.851315 286.583856 
L 367.95957 284.856938 
L 368.067824 286.535956 
L 368.176078 284.782526 
L 368.284332 286.447701 
L 368.392587 284.769998 
L 368.500841 286.458872 
L 368.609095 284.84193 
L 368.717349 286.550216 
L 368.825604 284.919319 
L 368.933858 286.642952 
L 369.042112 285.053762 
L 369.150366 286.783908 
L 369.258621 285.193147 
L 369.366875 286.944178 
L 369.475129 285.354896 
L 369.583384 287.102313 
L 369.691638 285.571921 
L 369.799892 287.32287 
L 369.908146 285.803 
L 370.016401 287.550741 
L 370.124655 286.051938 
L 370.232909 287.717577 
L 370.341163 286.15103 
L 370.449418 287.817058 
L 370.557672 286.272042 
L 370.665926 287.928565 
L 370.77418 286.377234 
L 370.882435 288.001975 
L 370.990689 286.455539 
L 371.098943 288.092928 
L 371.207198 286.514532 
L 371.315452 288.090028 
L 371.423706 286.549629 
L 371.53196 288.120285 
L 371.640215 286.541579 
L 371.748469 288.076634 
L 371.856723 286.482419 
L 371.964977 288.011423 
L 372.073232 286.372858 
L 372.181486 287.936875 
L 372.28974 286.302757 
L 372.397994 287.910128 
L 372.506249 286.312575 
L 372.614503 287.940281 
L 372.722757 286.320351 
L 372.831012 288.02856 
L 372.939266 286.42889 
L 373.04752 288.122308 
L 373.155774 286.519341 
L 373.264029 288.21537 
L 373.372283 286.626847 
L 373.480537 288.327186 
L 373.588791 286.763141 
L 373.697046 288.428648 
L 373.8053 286.894879 
L 373.913554 288.537767 
L 374.021808 287.005676 
L 374.130063 288.625311 
L 374.238317 287.066689 
L 374.346571 288.708865 
L 374.454826 287.134517 
L 374.56308 288.759668 
L 374.671334 287.170051 
L 374.779588 288.790683 
L 374.887843 287.190162 
L 374.996097 288.841215 
L 375.104351 287.239397 
L 375.212605 288.885776 
L 375.32086 287.274338 
L 375.429114 288.908747 
L 375.537368 287.257693 
L 375.645622 288.915948 
L 375.753877 287.310206 
L 375.862131 288.969708 
L 375.970385 287.377205 
L 376.07864 289.01549 
L 376.186894 287.41171 
L 376.295148 289.046751 
L 376.403402 287.409339 
L 376.511657 289.057175 
L 376.619911 287.419957 
L 376.728165 289.06726 
L 376.836419 287.43097 
L 376.944674 289.123495 
L 377.052928 287.520028 
L 377.161182 289.236838 
L 377.269436 287.693078 
L 377.377691 289.349855 
L 377.485945 287.721889 
L 377.594199 289.427401 
L 377.702454 287.817978 
L 377.810708 289.511474 
L 377.918962 287.93354 
L 378.027216 289.681669 
L 378.135471 288.097613 
L 378.243725 289.744559 
L 378.351979 288.162604 
L 378.460233 289.855562 
L 378.568488 288.258604 
L 378.676742 289.973833 
L 378.784996 288.469133 
L 378.89325 290.059393 
L 379.001505 288.487426 
L 379.109759 290.126363 
L 379.218013 288.62558 
L 379.326268 290.232275 
L 379.434522 288.704202 
L 379.542776 290.320947 
L 379.65103 288.867626 
L 379.759285 290.411966 
L 379.867539 288.861904 
L 379.975793 290.436182 
L 380.084047 288.937566 
L 380.192302 290.493602 
L 380.300556 288.975562 
L 380.40881 290.552257 
L 380.517064 289.095384 
L 380.625319 290.690322 
L 380.733573 289.215529 
L 380.841827 290.824121 
L 380.950082 289.370257 
L 381.058336 290.949993 
L 381.16659 289.507718 
L 381.274844 291.092041 
L 381.383099 289.65295 
L 381.491353 291.215707 
L 381.599607 289.784363 
L 381.707861 291.303174 
L 381.816116 289.807805 
L 381.92437 291.310137 
L 382.032624 289.798873 
L 382.140878 291.341756 
L 382.249133 289.831633 
L 382.357387 291.359145 
L 382.465641 289.788252 
L 382.573896 291.290053 
L 382.68215 289.759756 
L 382.790404 291.274086 
L 382.898658 289.707578 
L 383.006913 291.235611 
L 383.115167 289.69163 
L 383.223421 291.222571 
L 383.331675 289.645898 
L 383.43993 291.181854 
L 383.548184 289.611961 
L 383.656438 291.14055 
L 383.764692 289.542647 
L 383.872947 291.102592 
L 383.981201 289.601924 
L 384.089455 291.174141 
L 384.19771 289.518718 
L 384.305964 291.324719 
L 384.414218 289.856394 
L 384.522472 291.499244 
L 384.630727 289.953769 
L 384.738981 291.685601 
L 384.847235 290.142275 
L 384.955489 291.847073 
L 385.063744 290.346859 
L 385.171998 292.034589 
L 385.280252 290.542799 
L 385.388506 292.224136 
L 385.496761 290.704324 
L 385.605015 292.402116 
L 385.713269 290.863477 
L 385.821524 292.552309 
L 385.929778 291.015825 
L 386.038032 292.700632 
L 386.146286 291.193733 
L 386.254541 292.844062 
L 386.362795 291.290349 
L 386.471049 292.920592 
L 386.579303 291.366892 
L 386.687558 293.005961 
L 386.795812 291.434856 
L 386.904066 293.06507 
L 387.01232 291.529501 
L 387.120575 293.11458 
L 387.228829 291.614232 
L 387.337083 293.180935 
L 387.445338 291.669683 
L 387.553592 293.260851 
L 387.661846 291.766218 
L 387.7701 293.369404 
L 387.878355 291.848576 
L 387.986609 293.417956 
L 388.094863 291.877254 
L 388.203117 293.440502 
L 388.311372 291.838321 
L 388.419626 293.436661 
L 388.52788 291.854582 
L 388.636134 293.465906 
L 388.744389 291.835471 
L 388.852643 293.419243 
L 388.960897 291.790455 
L 389.069152 293.369585 
L 389.177406 291.676611 
L 389.28566 293.239539 
L 389.393914 291.482262 
L 389.502169 293.073963 
L 389.610423 291.36801 
L 389.718677 292.969564 
L 389.826931 291.23284 
L 389.935186 292.87807 
L 390.04344 291.229549 
L 390.151694 292.953214 
L 390.259948 291.364408 
L 390.368203 293.13431 
L 390.476457 291.538947 
L 390.584711 293.290595 
L 390.692966 291.68864 
L 390.80122 293.444495 
L 390.909474 291.86785 
L 391.017728 293.582816 
L 391.125983 291.980824 
L 391.234237 293.689477 
L 391.342491 292.112421 
L 391.450745 293.803555 
L 391.559 292.188513 
L 391.667254 293.840794 
L 391.775508 292.258783 
L 391.883762 293.948302 
L 391.992017 292.355039 
L 392.100271 294.009 
L 392.208525 292.428488 
L 392.31678 294.092514 
L 392.425034 292.555309 
L 392.533288 294.215149 
L 392.641542 292.580457 
L 392.749797 294.238021 
L 392.858051 292.691803 
L 392.966305 294.333242 
L 393.074559 292.683183 
L 393.182814 294.321566 
L 393.291068 292.705779 
L 393.399322 294.343142 
L 393.507576 292.652819 
L 393.615831 294.288814 
L 393.724085 292.615527 
L 393.832339 294.221208 
L 393.940594 292.487326 
L 394.048848 294.135412 
L 394.157102 292.449285 
L 394.265356 294.142057 
L 394.373611 292.479986 
L 394.481865 294.159003 
L 394.590119 292.469196 
L 394.698373 294.12822 
L 394.806628 292.461364 
L 394.914882 294.113865 
L 395.023136 292.330696 
L 395.13139 294.103669 
L 395.239645 292.47026 
L 395.347899 294.247364 
L 395.456153 292.695583 
L 395.564408 294.481681 
L 395.672662 292.824564 
L 395.780916 294.597308 
L 395.88917 293.092008 
L 395.997425 294.8488 
L 396.105679 293.279907 
L 396.213933 294.995407 
L 396.322187 293.503556 
L 396.430442 295.217416 
L 396.538696 293.693398 
L 396.64695 295.313299 
L 396.755204 293.738532 
L 396.863459 295.389211 
L 396.971713 293.831126 
L 397.079967 295.444653 
L 397.188222 293.82934 
L 397.296476 295.465685 
L 397.40473 293.885059 
L 397.512984 295.488 
L 397.621239 293.880482 
L 397.729493 295.455792 
L 397.837747 293.74552 
L 397.946001 295.357386 
L 398.054256 293.67686 
L 398.16251 295.279606 
L 398.270764 293.566472 
L 398.379018 295.163041 
L 398.487273 293.429761 
L 398.487273 293.429761 
" clip-path="url(#p281db2c97e)" style="fill: none; stroke: #1f77b4; stroke-width: 1.5; stroke-linecap: square"/>
   </g>
   <g id="patch_3">
    <path d="M 57.6 307.584 
L 57.6 41.472 
" style="fill: none; stroke: #000000; stroke-width: 0.8; stroke-linejoin: miter; stroke-linecap: square"/>
   </g>
   <g id="patch_4">
    <path d="M 414.72 307.584 
L 414.72 41.472 
" style="fill: none; stroke: #000000; stroke-width: 0.8; stroke-linejoin: miter; stroke-linecap: square"/>
   </g>
   <g id="patch_5">
    <path d="M 57.6 307.584 
L 414.72 307.584 
" style="fill: none; stroke: #000000; stroke-width: 0.8; stroke-linejoin: miter; stroke-linecap: square"/>
   </g>
   <g id="patch_6">
    <path d="M 57.6 41.472 
L 414.72 41.472 
" style="fill: none; stroke: #000000; stroke-width: 0.8; stroke-linejoin: miter; stroke-linecap: square"/>
   </g>
   <g id="text_19">
    <!-- learning rate = 0.0075 -->
    <g transform="translate(167.751563 35.472) scale(0.12 -0.12)">
     <defs>
      <path id="DejaVuSans-6c" d="M 603 4863 
L 1178 4863 
L 1178 0 
L 603 0 
L 603 4863 
z
" transform="scale(0.015625)"/>
      <path id="DejaVuSans-67" d="M 2906 1791 
Q 2906 2416 2648 2759 
Q 2391 3103 1925 3103 
Q 1463 3103 1205 2759 
Q 947 2416 947 1791 
Q 947 1169 1205 825 
Q 1463 481 1925 481 
Q 2391 481 2648 825 
Q 2906 1169 2906 1791 
z
M 3481 434 
Q 3481 -459 3084 -895 
Q 2688 -1331 1869 -1331 
Q 1566 -1331 1297 -1286 
Q 1028 -1241 775 -1147 
L 775 -588 
Q 1028 -725 1275 -790 
Q 1522 -856 1778 -856 
Q 2344 -856 2625 -561 
Q 2906 -266 2906 331 
L 2906 616 
Q 2728 306 2450 153 
Q 2172 0 1784 0 
Q 1141 0 747 490 
Q 353 981 353 1791 
Q 353 2603 747 3093 
Q 1141 3584 1784 3584 
Q 2172 3584 2450 3431 
Q 2728 3278 2906 2969 
L 2906 3500 
L 3481 3500 
L 3481 434 
z
" transform="scale(0.015625)"/>
      <path id="DejaVuSans-20" transform="scale(0.015625)"/>
      <path id="DejaVuSans-3d" d="M 678 2906 
L 4684 2906 
L 4684 2381 
L 678 2381 
L 678 2906 
z
M 678 1631 
L 4684 1631 
L 4684 1100 
L 678 1100 
L 678 1631 
z
" transform="scale(0.015625)"/>
     </defs>
     <use xlink:href="#DejaVuSans-6c"/>
     <use xlink:href="#DejaVuSans-65" x="27.783203"/>
     <use xlink:href="#DejaVuSans-61" x="89.306641"/>
     <use xlink:href="#DejaVuSans-72" x="150.585938"/>
     <use xlink:href="#DejaVuSans-6e" x="189.949219"/>
     <use xlink:href="#DejaVuSans-69" x="253.328125"/>
     <use xlink:href="#DejaVuSans-6e" x="281.111328"/>
     <use xlink:href="#DejaVuSans-67" x="344.490234"/>
     <use xlink:href="#DejaVuSans-20" x="407.966797"/>
     <use xlink:href="#DejaVuSans-72" x="439.753906"/>
     <use xlink:href="#DejaVuSans-61" x="480.867188"/>
     <use xlink:href="#DejaVuSans-74" x="542.146484"/>
     <use xlink:href="#DejaVuSans-65" x="581.355469"/>
     <use xlink:href="#DejaVuSans-20" x="642.878906"/>
     <use xlink:href="#DejaVuSans-3d" x="674.666016"/>
     <use xlink:href="#DejaVuSans-20" x="758.455078"/>
     <use xlink:href="#DejaVuSans-30" x="790.242188"/>
     <use xlink:href="#DejaVuSans-2e" x="853.865234"/>
     <use xlink:href="#DejaVuSans-30" x="885.652344"/>
     <use xlink:href="#DejaVuSans-30" x="949.275391"/>
     <use xlink:href="#DejaVuSans-37" x="1012.898438"/>
     <use xlink:href="#DejaVuSans-35" x="1076.521484"/>
    </g>
   </g>
  </g>
 </g>
 <defs>
  <clipPath id="p281db2c97e">
   <rect x="57.6" y="41.472" width="357.12" height="266.112"/>
  </clipPath>
 </defs>
</svg>
